#!OML:ASF I:\Actors\actors\Patient Classification 2\Patient 1\Session 1\actor1.ASF
:FULLY-SPECIFIED
:DEGREES
630
root -1.01362 17.976 6.24643 -3.87212 -2.60417 -4.55998
lowerback 2.58379 -0.550955 2.017
upperback -1.88479 -0.598689 1.75032
thorax -3.39027 -0.324067 0.703333
lowerneck -2.45534 2.64171 5.61422
upperneck 39.4376 -1.79761 12.9107
head 14.1815 1.58101 4.13838
rclavicle 1.67818e-014 5.62498e-015
rhumerus 43.0337 -35.8955 -45.409
rradius 133.309
rwrist -41.2479
rhand -3.50708 -8.13009
rfingers 7.12502
rthumb 22.2272 323.128
lclavicle 1.67818e-014 5.62498e-015
lhumerus 20.3899 0.619544 35.4159
lradius 144.368
lwrist 37.233
lhand -15.8685 -41.409
lfingers 7.12502
lthumb 10.3271 -11.6826
rfemur 0 0 0
rtibia 0
rfoot 0 0
rtoes 0
lfemur 25.0139 -7.10545 -13.1787
ltibia -20.135
lfoot -4.52 20.1395
ltoes -10.55
631
root -1.01073 17.9789 6.24689 -3.76221 -2.72885 -4.62482
lowerback 2.19312 -0.508533 1.95897
upperback -1.97525 -0.552439 1.83684
thorax -3.2615 -0.29835 0.818829
lowerneck -2.57755 2.46861 5.48027
upperneck 39.1058 -2.34077 13.8044
head 14.1119 1.41737 4.4606
rclavicle -1.20979e-015 1.64867e-014
rhumerus 43.4381 -35.0449 -47.2766
rradius 131.512
rwrist -46.9594
rhand -1.56721 -8.97965
rfingers 7.12502
rthumb 24.0884 322.512
lclavicle -1.20979e-015 1.64867e-014
lhumerus 19.4652 -1.83712 36.5223
lradius 144.257
lwrist 39.4529
lhand -17.6895 -39.5408
lfingers 7.12502
lthumb 8.57 -9.73474
rfemur 0 0 0
rtibia 0
rfoot 0 0
rtoes 0
lfemur 24.9071 -7.1392 -13.1337
ltibia -20.0778
lfoot -4.62249 20.3031
ltoes -10.4267
632
root -1.00641 17.9826 6.24783 -3.65661 -2.86455 -4.68413
lowerback 1.77161 -0.479582 1.91331
upperback -2.05541 -0.524531 1.93541
thorax -3.10497 -0.281805 0.940653
lowerneck -2.68529 2.2127 5.27143
upperneck 38.6315 -2.99519 14.7605
head 13.9894 1.19135 4.79783
rclavicle 2.88548e-015 -8.97016e-015
rhumerus 43.4606 -33.7934 -48.337
rradius 128.971
rwrist -52.0797
rhand 3.23918 -12.6664
rfingers 7.12502
rthumb 28.6891 319.517
lclavicle 2.88548e-015 -8.97016e-015
lhumerus 18.5186 -4.35038 37.8973
lradius 143.876
lwrist 41.7642
lhand -19.117 -37.5748
lfingers 7.12502
lthumb 7.19224 -7.717
rfemur 0 0 0
rtibia 0
rfoot 0 0
rtoes 0
lfemur 24.8101 -7.19425 -13.1138
ltibia -20.0209
lfoot -4.7285 20.4816
ltoes -10.4169
633
root -1.00175 17.9839 6.2482 -3.64321 -2.99509 -4.67973
lowerback 1.40651 -0.433026 1.80503
upperback -2.05553 -0.476113 1.99634
thorax -2.89769 -0.253781 1.05812
lowerneck -2.90677 1.94299 5.23994
upperneck 38.0888 -3.66659 15.6354
head 13.8757 0.972282 5.06339
rclavicle -1.77664e-015 9.79014e-015
rhumerus 42.921 -32.1723 -48.2299
rradius 125.946
rwrist -56.3809
rhand 7.34738 -14.7068
rfingers 7.12502
rthumb 32.6063 318.211
lclavicle -1.77664e-015 9.79014e-015
lhumerus 17.741 -6.62302 39.3966
lradius 143.252
lwrist 44.2262
lhand -19.9743 -35.1479
lfingers 7.12502
lthumb 6.36463 -5.26354
rfemur 0 0 0
rtibia 0
rfoot 0 0
rtoes 0
lfemur 24.812 -7.32806 -13.1952
ltibia -19.9688
lfoot -4.87057 20.6971
ltoes -10.3773
634
root -0.997377 17.9839 6.24694 -3.70276 -3.11562 -4.66783
lowerback 1.09926 -0.498098 1.61436
upperback -2.10653 -0.571055 2.21946
thorax -2.77253 -0.294278 1.39522
lowerneck -2.84877 1.78375 4.88395
upperneck 37.5156 -4.02781 16.3887
head 13.6499 0.81501 5.35633
rclavicle 1.30701e-014 -3.1408e-014
rhumerus 42.2812 -29.9409 -47.3045
rradius 122.864
rwrist -60.7391
rhand 11.781 -17.7601
rfingers 7.12502
rthumb 36.8136 316.128
lclavicle 1.30701e-014 -3.1408e-014
lhumerus 16.5444 -8.6302 41.0139
lradius 142.598
lwrist 46.6172
lhand -20.8569 -32.3782
lfingers 7.12502
lthumb 5.51254 -2.46991
rfemur 0 0 0
rtibia 0
rfoot 0 0
rtoes 0
lfemur 24.8872 -7.47798 -13.2929
ltibia -19.93
lfoot -4.99455 20.9422
ltoes -10.1688
